<svg viewBox="0 0 256 256" xml:space="preserve" xmlns="http://www.w3.org/2000/svg" enable-background="new 0 0 256 256"><path
        d="M157.3 102.8c2.3-1.6 2.8-4.8 1.2-7-9.5-13.2-8.8-30.5 1.8-43 20.9-24.8 54.1-33.7 79.9-36.7 1 14.8-1 31.6-5.9 47.8-1.8 5.9-18.3 57.1-53.8 46.5-1.5-.5-10.8-4.7-12.8-5.8-1.1-.9-2.5-1.2-3.9-1-6.4 1.1-13.3 25.2-13.8 36.1-.1 2.8 2 5.1 4.8 5.3h.2c2.7 0 4.9-2.1 5-4.8.4-9.8 4.1-19.8 6.5-25 .8.4 1.7.8 2.7 1.2 1.6.7 7 3.2 8.3 3.6 34.1 10.2 57.1-22.3 66.4-53.2 5.7-19.1 7.8-39.2 5.8-56.4 0-.1 0-.3-.1-.4-.5-2.7-3.1-4.6-5.8-4.3-40.4 3.8-72 17.9-91.3 40.7-13.6 16.1-14.5 38.3-2.3 55.3 1.7 2.2 4.9 2.7 7.1 1.1zM98.6 130.3c10.2.7 17.4-4.2 21.6-8.2 5.3 6 9.6 12.7 12.7 19.8.8 1.9 2.7 3 4.6 3 .7 0 1.4-.1 2-.4 2.5-1.1 3.7-4.1 2.6-6.6-4.3-9.9-10.6-19-18.6-26.9-1.1-1.1-2.6-1.6-4.1-1.4-1.5.2-2.9 1-3.7 2.3-.1.1-5.9 9.1-16.1 8.4-18-2.5-30-24.1-36.9-42-.3-.8-1.5-3.9-2.5-6.7 12.6-2.2 37.3-4.6 53.3 6.5 7 4.9 10.4 13.9 8.2 22.3-.7 2.7 1 5.4 3.7 6.1 2.7.7 5.4-1 6.1-3.7 3.1-12.5-1.8-25.8-12.3-33C97.7 55 65.5 60.1 52.3 63c-1.4.4-2.5 1.4-3.1 2.7-.8 1.7-1.3 2.8 4.2 16.4 11.4 29.5 26.5 45.7 45.2 48.2zM227.6 160.9l-62 26c-2.6 1.1-3.8 4-2.7 6.6 1.1 2.6 4 3.8 6.6 2.7l62-26c2.7-1.1 5.7-.3 7.5 1.9 1.1 1.4 1.6 3.2 1.3 5-.3 1.8-1.3 3.4-2.9 4.4-27 17.7-88.6 52.5-91.5 54.1-.1.1-.2.1-.4.2-7.5 4.4-15.8 5.7-26.4 3.8-.7-.1-14.9-1.9-48.9-6l-17.4-2.1v-67.8c2.8-.2 5.2-.3 6.4-.3h.6c23.4-1.5 45.7 3 69.4 7.8 3 .6 6.1 1.2 9.1 1.8 3.2.6 5.6 3.5 5.6 6.8 0 .2 0 .4-.1.8-.2 1.9-1.2 3.3-2 4-1.3 1.3-3 2-4.9 2H89.7c-2.8 0-5 2.3-5 5s2.3 5 5 5h47.4c4.5 0 8.8-1.8 12-5 2.7-2.8 4.4-6.2 4.8-9.7.1-.7.2-1.5.2-2.2 0-8.1-5.8-15.1-13.7-16.6-3-.6-6-1.2-9.1-1.8-23.3-4.7-47.3-9.6-72-8h-.5c-1.1.1-3.5.2-6.2.3-.6-2.1-2.4-3.7-4.8-3.7H10.5c-2.8 0-5 2.3-5 5v84.5c0 2.8 2.3 5 5 5h37.4c2 0 3.7-1.2 4.5-2.9l16.7 2c19.9 2.4 47.2 5.8 48.4 5.9 3.7.7 7.3 1 10.7 1 8.3 0 15.7-2 22.4-5.9.1 0 .1-.1.2-.1.6-.4 64.3-36.4 92.1-54.5 3.9-2.5 6.6-6.6 7.3-11.2.7-4.6-.5-9.3-3.5-12.9-4.6-5.9-12.3-7.8-19.1-4.9zM42.9 234.3H15.6v-74.4h27.3v74.4z"
        fill="#dcbf00" class="fill-000000"></path></svg>