<svg data-name="Layer 1" viewBox="0 0 512 512" xmlns="http://www.w3.org/2000/svg">
    <path
        d="M465.8 200.54c-.95.05-22.28-.26-37.36 13.89v-63.76a26.74 26.74 0 0 0-41.71-22.17 26.6 26.6 0 0 0-6-16.62c16.64-16.34 24.09-32.31 22.14-45.24-1.26-8.24-8.4-27.24-49.83-26.47-61.8 1.28-87.88 63-98.05 100.65-10.17-37.62-36.25-99.37-98-100.65-41.09-.52-48.59 18.24-49.82 26.47-2 13.23 5.85 29.66 23.33 46.39a26.6 26.6 0 0 0-5.14 15.47 26.73 26.73 0 0 0-41.69 22.17v63.78c-15.17-14.17-36.35-13.89-37.47-13.91a5.89 5.89 0 0 0-5.77 5.9v120.84a48.6 48.6 0 0 0 18.24 38l42 33.7v61a5.9 5.9 0 0 0 11.8 0V396.2a5.88 5.88 0 0 0-2.21-4.59l-44.21-35.47a36.9 36.9 0 0 1-13.83-28.86V212.79c6.28.89 16.4 3.43 23.83 10.77a31.65 31.65 0 0 1 7.75 12.61 3.69 3.69 0 0 0 .19.56 47.49 47.49 0 0 1 2.06 14.41v52.57a5.89 5.89 0 0 0 5.89 5.9h.11c-.09 0 35.14-.21 50.22 25.67a57.83 57.83 0 0 0 10.24 14.84c26.45 28.14 79.19 34.35 97.35 35.69V466a5.9 5.9 0 0 0 11.79 0v-80.16c17.67-1.25 71.14-7.32 97.84-35.72a58.25 58.25 0 0 0 10.18-14.7c14.93-25.89 50.1-26.15 50.31-25.81h.08a5.94 5.94 0 0 0 5.91-5.9v-52.57a47.41 47.41 0 0 1 2-14.35c.08-.21.15-.43.21-.64a31.6 31.6 0 0 1 7.82-12.59c7.44-7.34 17.54-9.88 23.82-10.77v114.49A36.92 36.92 0 0 1 446 356.14l-44.18 35.47a5.88 5.88 0 0 0-2.21 4.59v63.86a5.9 5.9 0 1 0 11.8 0V399l42-33.7a48.65 48.65 0 0 0 18.22-38V206.44a5.89 5.89 0 0 0-5.83-5.9ZM347.35 83.35a5.93 5.93 0 0 0-7.72-3.15c-1.85.77-38 16.33-71.07 56.74 10.72-34.69 34.72-83.95 84.69-85h2.42c21 0 33.91 6 35.49 16.48 1.35 9-4.93 22-19.77 36.17-.77.74-1.58 1.49-2.4 2.24l-.09.08c-.83.76-1.69 1.51-2.57 2.27-.82.71-1.67 1.42-2.53 2.13l-.36.3c-.9.74-1.81 1.48-2.75 2.22-4.48 3.51-9.47 7.06-15 10.59q-3.53 2.27-7.32 4.52l-.13.07q-3.8 2.25-7.9 4.49-12.19 6.66-27 13-8.32 3.55-17.51 7-9.52 3.54-20 6.85c33.81-50 77.88-69.09 78.35-69.29a5.91 5.91 0 0 0 3.17-7.71ZM118.74 68.41c1.58-10.52 14.48-16.48 35.48-16.48h2.43c51.13 1.06 75.08 52.62 85.43 87.4l.45 1.55C208.65 97.55 170.19 81 168.29 80.2a5.9 5.9 0 0 0-4.58 10.87c.49.2 44 18.92 77.82 68.48q-8.29-2.69-16-5.5c-1.43-.52-2.85-1.05-4.25-1.58l-.26-.1-3.92-1.51-.38-.15c-1.27-.5-2.53-1-3.78-1.51l-.33-.13-4-1.63q-15.12-6.36-27.56-13.09c-1.22-.65-2.41-1.3-3.58-2l-.42-.23q-5.46-3.06-10.39-6.14a197 197 0 0 1-17.21-12q-2.79-2.17-5.32-4.34l-.15-.13q-2.52-2.16-4.79-4.3c-15.31-14.4-21.83-27.69-20.45-36.8ZM137 309.21v2.9c-14-10.4-30.49-13.26-39.16-14v-46.97a59.44 59.44 0 0 0-2.47-17.59v-82.88a14.95 14.95 0 1 1 29.89 0v73.1a5.9 5.9 0 0 0 11.8 0v-95a14.8 14.8 0 0 1 2.26-7.87 214.82 214.82 0 0 0 27.65 19v86.37a5.9 5.9 0 1 0 11.79 0V146.4q13.68 7.14 29.9 13.76v66.1a5.9 5.9 0 1 0 11.79 0v-61.51q13.51 5 28.61 9.49a7.83 7.83 0 0 0 .78.57v65.55c-17.91.18-67.27 3-94.44 28.29a56.07 56.07 0 0 0-18.4 40.56Zm222.28 20.57c-.11.2-.24.4-.35.6a5.85 5.85 0 0 0-.46 1.07 46.83 46.83 0 0 1-7.54 10.55c-27.05 28.79-89.27 32.09-94.93 32.33-5.7-.24-67.82-3.49-94.91-32.31a46.53 46.53 0 0 1-7.54-10.5 6.1 6.1 0 0 0-.49-1.16c-.15-.26-.31-.51-.45-.77a43.82 43.82 0 0 1-3.79-20c.43-13 5.21-23.57 14.62-32.32 23.85-22.22 69.81-25 86.42-25.17v25.17a5.9 5.9 0 0 0 11.79 0v-25.14c16.15.16 62.8 2.72 86.91 25.14 9.41 8.75 14.19 19.33 14.62 32.34a43.89 43.89 0 0 1-3.87 20.17Zm57.34-96.23a59.44 59.44 0 0 0-2.47 17.59v46.95c-8.68.76-25.15 3.61-39.18 14v-2.91a56 56 0 0 0-18.38-40.57c-27.16-25.26-76.52-28.11-94.43-28.29v-66.49q15.49-4.64 29.33-9.85c0 .42.06.84.06 1.27v61a5.9 5.9 0 1 0 11.79 0v-66.94c10.84-4.47 20.82-9.17 29.91-14v81a5.9 5.9 0 0 0 11.8 0v-87.66a209.34 209.34 0 0 0 26.88-18.85 14.87 14.87 0 0 1 3 9v95a5.9 5.9 0 0 0 11.8 0v-73.1a15 15 0 1 1 29.91 0Z"
        fill="#c9951c" class="fill-000000"></path>
    <path
        d="M177 322.11a5.89 5.89 0 1 0-8.35 8.32l8.95 9a5.91 5.91 0 0 0 4.18 1.73 5.83 5.83 0 0 0 4.16-1.72 5.89 5.89 0 0 0 0-8.33ZM217.23 314.6a5.91 5.91 0 1 0-8.36 8.35l9 8.95a5.93 5.93 0 0 0 8.35 0 5.93 5.93 0 0 0 0-8.35ZM189.28 285.62l-8.95 9a5.9 5.9 0 0 0 8.35 8.35l8.95-8.95a5.91 5.91 0 0 0-8.35-8.36ZM240.21 340.6l-9 8.95a5.89 5.89 0 1 0 8.32 8.35l9-8.95a5.9 5.9 0 0 0-8.33-8.35Z"
        fill="#c9951c" class="fill-000000"></path>
</svg>